<?xml version="1.0"?>
<svg xmlns="http://www.w3.org/2000/svg" xmlns:xlink="http://www.w3.org/1999/xlink" xmlns:svgjs="http://svgjs.com/svgjs" version="1.1" width="512" height="512" x="0" y="0" viewBox="0 0 511.904 511.904" style="enable-background:new 0 0 512 512" xml:space="preserve" class=""><g><g xmlns="http://www.w3.org/2000/svg"><path d="m210.911 220.642c-16.485-5.139-33.915 1.35-44.4 16.533l-69.318 100.37c-3.139 4.544-1.999 10.772 2.546 13.911l64.395 44.475c9.98 6.977 22.369 5.36 29.535-5.046 4.421-6.401 8.39-12.064 11.891-17.061 35.619-47.078 30.621-58.784 31.027-117.768-.001-16.651-10.079-30.552-25.676-35.414zm-27.943 27.898c6.562-9.5 15.662-10.779 21.99-8.805 2.668.832 5.422 2.442 7.581 4.897l-75.013 108.615-18.194-12.566zm6.212 113.806c-3.52 5.023-7.509 10.716-11.968 17.172-.206.298-.387.491-.511.604-.234-.079-.647-.264-1.203-.648l-21.516-14.86 62.539-90.554c0 .203-.001.406-.001.608-.077 48.773-.077 48.773-27.34 87.678z" fill="#ef233c" data-original="#000000" style=""/><path d="m342.599 140.196 125.915-36.557c5.302-1.54 8.354-7.084 6.816-12.387l-16.831-58.081c-.738-2.548-2.459-4.699-4.783-5.978-2.325-1.28-5.063-1.583-7.609-.843l-131.687 38.234c-4.391 1.272-8.491 3.257-12.192 5.9l-54.992 36.215-8.74-13.272c-4.499-6.833-11.411-11.509-19.462-13.167-8.05-1.658-16.248-.092-23.08 4.407l-43.248 28.48c-6.832 4.5-11.508 11.412-13.166 19.463-1.657 8.051-.093 16.248 4.407 23.081l8.74 13.272-23.326 15.361c-4.404 2.896-8.117 6.509-11.032 10.735l-116.519 168.717c-3.14 4.36-1.934 10.946 2.546 13.912l41.553 28.692-44.099 63.853c-7.109 11.175 8.48 21.996 16.457 11.365l63.697-92.231c3.919 2.73 7.991 5.578 12.198 8.521 19.285 13.488 41.145 28.776 59.08 40.193 22.184 14.12 52.004 8.559 66.477-12.396l78.693-113.944c1.299-1.881 2.575-3.692 3.815-5.452 11.549-16.388 22.456-31.866 15.732-56.963-8.928-33.317-9.85-62.358-2.844-91.031zm-29.2-53.121c.121-.08.241-.163.359-.248 1.882-1.36 3.977-2.381 6.233-3.035l122.083-35.444 11.265 38.871-117.767 34.191c-.962.279-1.876.701-2.712 1.252l-23.62 15.555-22.233-33.762zm-152.749 57.617c-1.562-2.371-2.102-5.229-1.521-8.047.58-2.819 2.205-5.231 4.576-6.792l43.248-28.481c2.37-1.561 5.228-2.102 8.047-1.521 2.818.58 5.23 2.206 6.792 4.577l8.74 13.272-61.142 40.266zm125.229 150.076c-1.275 1.81-2.588 3.673-3.924 5.607l-78.693 113.944c-8.436 12.215-26.057 15.307-39.279 6.889-17.569-11.183-39.239-26.339-58.358-39.71-7.259-5.077-14.116-9.873-20.511-14.29-4.372-3.143-10.943-1.933-13.911 2.546l-13.929 20.168-33.324-23.011 110.839-160.49c1.448-2.1 3.318-3.91 5.565-5.388l129.951-85.58 25.302 38.424c-7.752 31.933-6.767 64.045 3.035 100.623 4.301 16.055-1.76 24.655-12.763 40.268z" fill="#ef233c" data-original="#000000" style=""/><path d="m493.705 168.009c-24.81-32.043-37.969-31.95-62.719 0-6.848 9.177-18.334 27.324-18.334 45.758-.452 26.351 23.022 50.548 49.47 50.009h.372c12.944 0 25.241-5.15 34.642-14.515 25.561-25.967 13.637-59.001-3.431-81.252zm-10.684 67.083c-5.65 5.629-12.98 8.714-20.713 8.684-7.658.03-14.987-3.055-20.637-8.683-5.731-5.709-9.019-13.482-9.019-21.326 0-19.107 21.477-44.707 29.693-49.53 8.217 4.823 29.693 30.423 29.693 49.53.001 7.842-3.286 15.615-9.017 21.325z" fill="#ef233c" data-original="#000000" style=""/></g></g></svg>
