<?xml version="1.0" encoding="UTF-8"?>
<svg xmlns="http://www.w3.org/2000/svg" id="Layer_1" data-name="Layer 1" viewBox="0 0 512 512" width="100" height="100"><path d="M422.632,361.928a10.02,10.02,0,0,0-9.653-7.387H369.85a10,10,0,0,0-9.806,11.965l2.453,12.238a10.028,10.028,0,0,0,9.805,8.036h43.99a10,10,0,0,0,9.652-12.613ZM373.941,374.78l-1.651-8.239h39.159l2.229,8.239Z"/><path d="M408.438,351.268a10,10,0,0,0,9.652-12.613l-3.312-12.238a10.019,10.019,0,0,0-9.652-7.388H364.035a10,10,0,0,0-9.805,11.965l2.452,12.238a10.029,10.029,0,0,0,9.805,8.036ZM403.6,331.029l2.229,8.239h-37.7l-1.65-8.239Z"/><path d="M400.584,316.755a10,10,0,0,0,9.652-12.612l-3.312-12.237a10.018,10.018,0,0,0-9.652-7.389H358.22a10,10,0,0,0-9.805,11.964l2.453,12.24a10.026,10.026,0,0,0,9.8,8.034Zm-4.843-20.238,2.229,8.238H362.311l-1.65-8.238Z"/><path d="M392.767,281.243a10,10,0,0,0,9.67-12.546l-3.223-12.238a10.005,10.005,0,0,0-9.67-7.454H352.472a10,10,0,0,0-9.813,11.924l2.4,12.237a10.02,10.02,0,0,0,9.814,8.077ZM388,261.005l2.17,8.238H356.518l-1.616-8.238Z"/><path d="M410.609,212.248a42.55,42.55,0,0,0-41.3-31.755h-73.2l-2.852-65.4h9.152A25.3,25.3,0,0,0,327.782,89.92V88.078h11.311a8.849,8.849,0,0,0,8.853-8.824V47.837a8.848,8.848,0,0,0-8.853-8.823H327.782V37.172A25.3,25.3,0,0,0,302.408,12H202.245a25.3,25.3,0,0,0-25.373,25.172V89.92a25.3,25.3,0,0,0,25.373,25.172h16.316l-2.117,65.4H142.689a42.55,42.55,0,0,0-41.3,31.755l-60.821,235a41.706,41.706,0,0,0,7.47,36.217A42.465,42.465,0,0,0,81.868,500H430.132a42.465,42.465,0,0,0,33.828-16.536,41.706,41.706,0,0,0,7.47-36.217ZM327.782,51.014h8.164V76.078h-8.164ZM221.822,24h61.009V54.562H221.822Zm-19.577,79.092A13.289,13.289,0,0,1,188.872,89.92V37.172A13.289,13.289,0,0,1,202.245,24h7.577V54.562a12.014,12.014,0,0,0,12,12h61.009a12.013,12.013,0,0,0,12-12V24h7.577a13.29,13.29,0,0,1,13.374,13.172V89.92a13.29,13.29,0,0,1-13.374,13.172Zm85.109,152.1h-21.7a19.283,19.283,0,0,0-19.331,19.192v33.573h-22l6.244-192.862h50.677Zm-65.1,64.765h24.069v42.9a19.283,19.283,0,0,0,19.331,19.192h65.45a7.312,7.312,0,0,1,7.265,6.228l9.207,66.764a7.009,7.009,0,0,1-1.693,5.638,7.38,7.38,0,0,1-5.572,2.519H265.226A7.271,7.271,0,0,1,257.9,456V435.539a19.284,19.284,0,0,0-19.331-19.192H195.69c-4.688-96.1,9.854-134.82,17.93-148.607l-1.356,41.89a10,10,0,0,0,9.994,10.324Zm-38.582,96.393h-5.53a7.379,7.379,0,0,1-5.572-2.519,7.009,7.009,0,0,1-1.693-5.638l25.964-188.262a7.31,7.31,0,0,1,7.264-6.227h11.26l-1.232,38.065a17.685,17.685,0,0,0-9,6.908C194.926,273.964,178.781,314.663,183.676,416.347Zm270.8,59.772A30.548,30.548,0,0,1,430.132,488H81.868a30.548,30.548,0,0,1-24.339-11.881,29.786,29.786,0,0,1-5.342-25.866l60.821-235a30.552,30.552,0,0,1,29.681-22.762h73.367l-.3,9.208H204.109a19.358,19.358,0,0,0-19.152,16.588L158.993,406.551a19.1,19.1,0,0,0,4.534,15.161,19.377,19.377,0,0,0,14.619,6.635h60.418a7.271,7.271,0,0,1,7.331,7.192V456A19.284,19.284,0,0,0,265.226,475.2h75.089a19.377,19.377,0,0,0,14.619-6.635,19.1,19.1,0,0,0,4.534-15.162l-9.208-66.764a19.358,19.358,0,0,0-19.152-16.588h-65.45a7.271,7.271,0,0,1-7.331-7.192V274.381a7.27,7.27,0,0,1,7.331-7.192h45.971a19.38,19.38,0,0,0,14.618-6.635,19.1,19.1,0,0,0,4.534-15.162l-3.738-27.1A19.358,19.358,0,0,0,307.891,201.7H297.033l-.4-9.208h72.68a30.552,30.552,0,0,1,29.681,22.762l60.821,235A29.786,29.786,0,0,1,454.471,476.119ZM297.556,213.7h10.335a7.31,7.31,0,0,1,7.264,6.228l3.739,27.1a7.016,7.016,0,0,1-1.693,5.638,7.381,7.381,0,0,1-5.572,2.52H299.365Z"/></svg>
