<?xml version="1.0"?>
<svg xmlns="http://www.w3.org/2000/svg" xmlns:xlink="http://www.w3.org/1999/xlink" xmlns:svgjs="http://svgjs.com/svgjs" version="1.1" width="512" height="512" x="0" y="0" viewBox="0 0 192 192" style="enable-background:new 0 0 512 512" xml:space="preserve" class=""><g><g xmlns="http://www.w3.org/2000/svg" id="_05-transmission" data-name="05-transmission"><path d="m96 0c-55.925 0-88 29.159-88 80 0 54.088 35.36 112 88 112s88-57.912 88-112c0-50.841-32.075-80-88-80zm51.668 145.643c-13.682 19.576-32.03 30.357-51.668 30.357s-37.986-10.781-51.668-30.357c-12.732-18.217-20.332-42.757-20.332-65.643 0-52.9 39.154-64 72-64s72 11.1 72 64c0 22.886-7.6 47.426-20.332 65.643z" fill="#ef233c" data-original="#000000" style="" class=""/><path d="m128 88h-24v-24h-16v24h-24v-24h-16v32a8 8 0 0 0 8 8h32v24h16v-24h24v24h16v-64h-16z" fill="#ef233c" data-original="#000000" style="" class=""/><circle cx="96" cy="144" r="8" fill="#ef233c" data-original="#000000" style="" class=""/><circle cx="136" cy="144" r="8" fill="#ef233c" data-original="#000000" style="" class=""/><circle cx="136" cy="48" r="8" fill="#ef233c" data-original="#000000" style="" class=""/><circle cx="96" cy="48" r="8" fill="#ef233c" data-original="#000000" style="" class=""/><circle cx="56" cy="48" r="8" fill="#ef233c" data-original="#000000" style="" class=""/></g></g></svg>
